<?xml version="1.0" encoding="iso-8859-1"?>
<!-- Generator: Adobe Illustrator 28.0.0, SVG Export Plug-In . SVG Version: 6.00 Build 0)  -->
<svg version="1.1" id="Layer_1" xmlns="http://www.w3.org/2000/svg" xmlns:xlink="http://www.w3.org/1999/xlink" x="0px" y="0px"
	 viewBox="0 0 100 100" style="enable-background:new 0 0 100 100;" xml:space="preserve">
<g>
	<g>
		<path d="M45.271,6.954C38.18,21.941,31.089,36.929,23.999,51.916c-0.821,1.736,1.764,3.26,2.59,1.514
			C33.68,38.443,40.77,23.455,47.861,8.468C48.682,6.732,46.097,5.208,45.271,6.954L45.271,6.954z"/>
	</g>
</g>
<g>
	<g>
		<path d="M25.882,7.885c6.881,15.085,13.762,30.17,20.643,45.254c0.8,1.754,3.387,0.231,2.59-1.514
			C42.235,36.54,35.354,21.455,28.472,6.37C27.672,4.616,25.086,6.139,25.882,7.885L25.882,7.885z"/>
	</g>
</g>
<g>
	<g>
		<path d="M59.242,24.738c-4.206,8.889-8.411,17.778-12.617,26.668c-0.821,1.736,1.764,3.26,2.59,1.514
			c4.206-8.889,8.411-17.778,12.617-26.668C62.654,24.516,60.068,22.992,59.242,24.738L59.242,24.738z"/>
	</g>
</g>
<g>
	<g>
		<path d="M10.691,23.86c4.475,9.811,8.951,19.622,13.426,29.433c0.8,1.754,3.387,0.231,2.59-1.514
			c-4.475-9.811-8.951-19.622-13.426-29.433C12.482,20.592,9.895,22.115,10.691,23.86L10.691,23.86z"/>
	</g>
</g>
</svg>
